<svg xmlns="http://www.w3.org/2000/svg" viewBox="0 0 338.667 254" height="960" width="1280" xmlns:v="https://vecta.io/nano"><g fill="#7fdf1f"><circle cx="142.694" cy="93.748" r="2"/><circle cx="217.834" cy="233.973" r="2"/><circle cx="323.925" cy="208.162" r="2"/><circle cx="121.597" cy="82" r="2"/><circle cx="132.693" cy="169.539" r="2"/><circle cx="166.905" cy="18.036" r="2"/><circle cx="187.433" cy="55.913" r="2"/><circle cx="158.915" cy="240.244" r="2"/><circle cx="22.257" cy="214.04" r="2"/><circle cx="291.089" cy="56.074" r="2"/><circle cx="2.477" cy="222.067" r="2"/><circle cx="265.919" cy="17.065" r="2"/><circle cx="158.612" cy="223.273" r="2"/><circle cx="18.551" cy="148.582" r="2"/><circle cx="62.569" cy="182.017" r="2"/><circle cx="324.836" cy="143.183" r="2"/><circle cx="217.765" cy="196.432" r="2"/><circle cx="20.437" cy="96.003" r="2"/><circle cx="174.959" cy="223.507" r="2"/><circle cx="172.222" cy="171.19" r="2"/><circle cx="199.665" cy="143.775" r="2"/><circle cx="164.151" cy="167.266" r="2"/><circle cx="331.51" cy="77.595" r="2"/><circle cx="302.445" cy="93.885" r="2"/><circle cx="55.976" cy="156.025" r="2"/><circle cx="312.401" cy="46.311" r="2"/><circle cx="246.813" cy="194.673" r="2"/><circle cx="192.352" cy="111.205" r="2"/><circle cx="233.691" cy="14.742" r="2"/><circle cx="242.955" cy="237.957" r="2"/><circle cx="54.962" cy="238.906" r="2"/><circle cx="20.33" cy="107.296" r="2"/><circle cx="87.599" cy="164.734" r="2"/><circle cx="307.075" cy="206.568" r="2"/><circle cx="275.896" cy="108.988" r="2"/><circle cx="268.167" cy="142.577" r="2"/></g><g fill="#1f7fdf"><circle cx="83.24" cy="240.722" r="2"/><circle cx="33.204" cy="229.597" r="2"/><circle cx="214.092" cy="136.321" r="2"/><circle cx="110.049" cy="19.908" r="2"/><circle cx="284.058" cy="3.25" r="2"/><circle cx="237.144" cy="240.226" r="2"/><circle cx="159.06" cy="111.67" r="2"/><circle cx="220.362" cy="106.341" r="2"/><circle cx="49.454" cy="164.49" r="2"/><circle cx="172.666" cy="178.257" r="2"/><circle cx="332.968" cy="103.944" r="2"/><circle cx="170.738" cy="8.218" r="2"/><circle cx="2.916" cy="134.293" r="2"/><circle cx="258.186" cy="51.898" r="2"/><circle cx="248.559" cy="241.843" r="2"/><circle cx="248.97" cy="215.711" r="2"/><circle cx="198.317" cy="123.7" r="2"/><circle cx="121.357" cy="33.338" r="2"/><circle cx="163.368" cy="89.836" r="2"/><circle cx="123.966" cy="243.805" r="2"/><circle cx="66.544" cy="174.683" r="2"/><circle cx="189.813" cy="188.199" r="2"/><circle cx="163.642" cy="177.08" r="2"/><circle cx="259.316" cy="43.321" r="2"/><circle cx="318.344" cy="9.517" r="2"/><circle cx="136.366" cy="142.754" r="2"/><circle cx="254.298" cy="71.931" r="2"/><circle cx="300.567" cy="174.938" r="2"/><circle cx="262.679" cy="155.455" r="2"/><circle cx="145.412" cy="120.866" r="2"/><circle cx="200.997" cy="165.737" r="2"/><circle cx="280.796" cy="46.546" r="2"/><circle cx="83.865" cy="22.313" r="2"/><circle cx="207.466" cy="70.657" r="2"/></g><g fill="#df1f1f"><circle cx="29.608" cy="171.033" r="2"/><circle cx="3.209" cy="216.611" r="2"/><circle cx="318.351" cy="209.602" r="2"/><circle cx="210.861" cy="163.357" r="2"/><circle cx="13.011" cy="52.12" r="2"/><circle cx="129.289" cy="194.94" r="2"/><circle cx="45.992" cy="77.456" r="2"/><circle cx="158.579" cy="35.71" r="2"/><circle cx="272.663" cy="167.688" r="2"/><circle cx="20.939" cy="221.355" r="2"/><circle cx="197.167" cy="63.821" r="2"/><circle cx="254.491" cy="161.224" r="2"/><circle cx="106.268" cy="213.122" r="2"/><circle cx="278.086" cy="58.063" r="2"/><circle cx="231.85" cy="41.133" r="2"/><circle cx="44.706" cy="231.894" r="2"/><circle cx="61.671" cy="85.694" r="2"/><circle cx="329.012" cy="25.523" r="2"/><circle cx="55.59" cy="117.76" r="2"/><circle cx="77.07" cy="8.664" r="2"/><circle cx="85.84" cy="122.677" r="2"/><circle cx="99.975" cy="72.189" r="2"/><circle cx="38.308" cy="51.512" r="2"/><circle cx="270.189" cy="220.866" r="2"/><circle cx="304.641" cy="131.141" r="2"/><circle cx="249.738" cy="3.82" r="2"/><circle cx="101.458" cy="108.333" r="2"/><circle cx="52.995" cy="182.164" r="2"/><circle cx="102.083" cy="85.274" r="2"/><circle cx="192.066" cy="217.633" r="2"/></g></svg>