<svg xmlns="http://www.w3.org/2000/svg" height="1080" width="1920" xmlns:v="https://vecta.io/nano"><g fill="#7fdf1f"><circle cx="1612.8510469941239" cy="324.9943680813985" r="10"/><circle cx="120.1851233980911" cy="105.56295818632506" r="10"/><circle cx="989.5041733403735" cy="776.8208253257911" r="10"/><circle cx="1878.7711277603532" cy="107.01472930503085" r="10"/><circle cx="781.2280194612061" cy="738.0379348666518" r="10"/><circle cx="1671.413738395978" cy="78.45721001511704" r="10"/><circle cx="1184.084389694566" cy="505.9445945108476" r="10"/><circle cx="1714.2983402709222" cy="665.3869712900225" r="10"/><circle cx="1785.1922254799101" cy="331.84062147343906" r="10"/><circle cx="54.63807601410803" cy="241.64811546864675" r="10"/><circle cx="209.45930486501183" cy="389.4191945625677" r="10"/><circle cx="1537.9460243926362" cy="254.0830295669028" r="10"/><circle cx="269.5264061968566" cy="419.7653733598008" r="10"/><circle cx="381.78444227399217" cy="195.01301225624357" r="10"/><circle cx="565.4355057067892" cy="377.16737510589564" r="10"/><circle cx="227.88373140134613" cy="755.1633880868153" r="10"/><circle cx="1593.8757537162458" cy="320.04928401159157" r="10"/><circle cx="1760.65593290374" cy="643.7462630423302" r="10"/><circle cx="909.0375861623129" cy="261.4131776641804" r="10"/><circle cx="16.989778880561648" cy="211.545130428703" r="10"/><circle cx="296.6235099977624" cy="777.5825984408273" r="10"/><circle cx="1759.9198153743687" cy="766.7438108565941" r="10"/><circle cx="1572.1528345375002" cy="139.88601362969476" r="10"/><circle cx="1204.9070233529574" cy="1019.5878525422401" r="10"/><circle cx="1504.7525793435575" cy="58.756743039226805" r="10"/><circle cx="169.40606618102427" cy="318.5874234159041" r="10"/><circle cx="339.31749323130543" cy="670.7829919157582" r="10"/><circle cx="273.6243666478242" cy="557.9240766748068" r="10"/><circle cx="1084.3572245441028" cy="570.3278007362654" r="10"/><circle cx="578.6262817175611" cy="775.6550824318996" r="10"/><circle cx="728.3326074809443" cy="693.0912300302595" r="10"/><circle cx="742.0453090998017" cy="30.592528093919924" r="10"/><circle cx="1191.6341580454598" cy="742.6677440482788" r="10"/><circle cx="128.1108521039867" cy="874.9830369600647" r="10"/><circle cx="1346.4279621912099" cy="283.21227472114674" r="10"/><circle cx="1463.7036421685948" cy="576.8406754156613" r="10"/></g><g fill="#1f7fdf"><circle cx="557.6498033848012" cy="288.45065100179863" r="10"/><circle cx="1672.79306936698" cy="899.0300782357722" r="10"/><circle cx="394.03333868537754" cy="100.33317056863939" r="10"/><circle cx="103.63167509646935" cy="598.1088335946711" r="10"/><circle cx="84.78488842101498" cy="431.47664010787776" r="10"/><circle cx="713.2421784890984" cy="899.1868262613361" r="10"/><circle cx="1622.0416049225073" cy="943.1502615051027" r="10"/><circle cx="1899.832469886362" cy="575.3362807179843" r="10"/><circle cx="674.9570529442215" cy="574.9612081157019" r="10"/><circle cx="989.747371399147" cy="918.729053773115" r="10"/><circle cx="1748.328176176034" cy="806.9837473432444" r="10"/><circle cx="678.3604637534102" cy="252.55682541986212" r="10"/><circle cx="579.0160427143245" cy="450.95370495013105" r="10"/><circle cx="104.81920150082016" cy="272.67852446501075" r="10"/><circle cx="254.9714945444201" cy="208.45206325283482" r="10"/><circle cx="1520.0991924542932" cy="927.9426499274657" r="10"/><circle cx="1745.16905223724" cy="449.5228160300716" r="10"/><circle cx="1472.60863863145" cy="108.41726849282281" r="10"/><circle cx="103.28642483143167" cy="863.5477189867196" r="10"/><circle cx="1277.1160545483299" cy="415.5364897730653" r="10"/><circle cx="452.0491083848699" cy="340.69528217028983" r="10"/><circle cx="1883.189593651367" cy="463.26839476491796" r="10"/><circle cx="1036.5027765045209" cy="452.4599942564085" r="10"/><circle cx="171.682167181984" cy="902.4054811050058" r="10"/><circle cx="1618.5206508707063" cy="993.7607024354035" r="10"/><circle cx="366.4071939348899" cy="844.65139726139" r="10"/><circle cx="1023.3967812855361" cy="1007.0184369449806" r="10"/><circle cx="1840.783350557299" cy="612.5742326835658" r="10"/><circle cx="1396.5350064632296" cy="512.9740214699913" r="10"/><circle cx="1196.6706472625622" cy="260.0571878870244" r="10"/><circle cx="1081.9950777613944" cy="1061.9655751716705" r="10"/><circle cx="1613.367966869446" cy="133.01985826362116" r="10"/><circle cx="868.7999762438574" cy="950.6040459279234" r="10"/><circle cx="1047.0978833820286" cy="149.58135400381764" r="10"/></g><g fill="#df1f1f"><circle cx="1086.266150261025" cy="607.1725839168116" r="10"/><circle cx="1230.4403789959608" cy="856.0198554181576" r="10"/><circle cx="614.5548946340725" cy="689.3922062917577" r="10"/><circle cx="746.8576901502138" cy="401.848416046607" r="10"/><circle cx="1061.360798857205" cy="616.1178816361863" r="10"/><circle cx="1026.3666632670297" cy="234.68061036499498" r="10"/><circle cx="362.76115867320004" cy="810.0972912920362" r="10"/><circle cx="832.2407166259688" cy="976.1369386359623" r="10"/><circle cx="1013.2489186683015" cy="463.6610193468918" r="10"/><circle cx="79.13385291321212" cy="814.7732865664651" r="10"/><circle cx="178.69587248696655" cy="594.7140922409235" r="10"/><circle cx="789.2309530757645" cy="464.1132074349869" r="10"/><circle cx="710.0644535381979" cy="951.2552218501223" r="10"/><circle cx="1894.5848538736304" cy="985.9228652370274" r="10"/><circle cx="788.170614123611" cy="53.87985124015668" r="10"/><circle cx="1846.4494213096148" cy="858.4307412087716" r="10"/><circle cx="1670.3491537527868" cy="658.4869212461642" r="10"/><circle cx="1329.5256951611225" cy="920.0063348956177" r="10"/><circle cx="1152.9370296612333" cy="134.89609494414753" r="10"/><circle cx="38.39114425242191" cy="554.8295254714235" r="10"/><circle cx="411.9179765690151" cy="795.3585950754918" r="10"/><circle cx="226.60368657415364" cy="240.46411823636143" r="10"/><circle cx="1031.9869865536868" cy="628.3121680419822" r="10"/><circle cx="1101.2379464913731" cy="186.18292700444763" r="10"/><circle cx="234.3964403019734" cy="901.3741450204227" r="10"/><circle cx="28.846143913440617" cy="262.12611739807767" r="10"/><circle cx="435.2507034470975" cy="33.39286330114916" r="10"/><circle cx="1378.701408315537" cy="636.5475483476679" r="10"/><circle cx="1240.040005200137" cy="615.1136047648878" r="10"/><circle cx="692.8839419721694" cy="695.115664523094" r="10"/></g></svg>