<svg xmlns="http://www.w3.org/2000/svg" viewBox="0 0 589.21 155.23"><defs><style>.kombo_yellow_svg__cls-1{fill:#fff}</style></defs><path class="kombo_yellow_svg__cls-1" d="M148.62 42.26q20.12 0 33.72 14a46.55 46.55 0 0113.59 33.63q0 19.78-13.59 33.55t-33.72 13.76q-20.26 0-33.79-13.76t-13.52-33.55a46.69 46.69 0 0113.52-33.63q13.52-14.01 33.79-14zm0 20.27q-11.58 0-18.74 8a28 28 0 00-7.16 19.31A26.68 26.68 0 00129.8 109q7.23 7.88 18.82 7.88 11.43.17 18.67-7.8a27.57 27.57 0 007.24-19.23 27.85 27.85 0 00-7.24-19.31q-7.29-8.02-18.67-8.01zM299.24 61.82q-8.85 0-13.2 6.19t-4.34 18.27v47.31h-21.41V81.45q0-18.49 10-29.21c6.65-7.13 18.11-10.7 29.06-10.7 10.94 0 22.4 3.57 29.05 10.7s10 16.88 10 29.21v52.14H317V86.28q0-12.07-4.35-18.27t-13.19-6.19"></path><path class="kombo_yellow_svg__cls-1" d="M242.42 61.82q-8.85 0-13.2 6.19t-4.34 18.27v47.31h-21.4V81.45q0-18.49 10-29.21c6.65-7.13 18.11-10.7 29-10.7 10.94 0 22.4 3.57 29.06 10.7s10 16.88 10 29.21v52.14h-21.4V86.28q0-12.07-4.34-18.27t-13.2-6.19M498 42.26q20.12 0 33.71 14a46.52 46.52 0 0113.6 33.63q0 19.78-13.6 33.55T498 137.2q-20.28 0-33.79-13.76t-13.52-33.55a46.69 46.69 0 0113.52-33.63q13.52-14.01 33.79-14zm0 20.27q-11.58 0-18.75 8a28.06 28.06 0 00-7.16 19.31 26.76 26.76 0 007.08 19.16q7.24 7.88 18.83 7.88 11.43.17 18.67-7.8a27.57 27.57 0 007.24-19.23 27.85 27.85 0 00-7.24-19.31q-7.25-8.02-18.67-8.01zM369.92 134.13h-21.79L348.59 14h20.87z"></path><path class="kombo_yellow_svg__cls-1" d="M395.84 42.26q20.12 0 33.71 14a46.56 46.56 0 0113.6 33.63q0 19.78-13.6 33.55t-33.71 13.76q-20.28 0-33.8-13.76t-13.51-33.55A46.68 46.68 0 01362 56.26q13.57-14.01 33.84-14zm0 20.27q-11.59 0-18.75 8a28.06 28.06 0 00-7.16 19.31A26.68 26.68 0 00377 109q7.25 7.88 18.83 7.88 11.42.17 18.66-7.8a27.57 27.57 0 007.24-19.23 27.85 27.85 0 00-7.24-19.31q-7.22-8.02-18.65-8.01zM15 13.19h21.38v120.07H15zM75.09 68.28c1-.85 1.94-1.73 2.89-2.67 12.87-12.8 19.4-30.43 19.4-52.42H76c0 21.22-7.67 36.17-22.8 44.44-.48.26-1 .5-1.44.74a74.74 74.74 0 0123.33 9.91z"></path><path class="kombo_yellow_svg__cls-1" d="M100.53 133.32l-21.37-.08a58.35 58.35 0 00-6.69-24.73C64.2 93.37 49.24 85.7 28 85.7V64.32c22 0 39.62 6.53 52.42 19.41 20.06 20.15 20.12 48.4 20.11 49.59z"></path><circle cx="563.47" cy="120.34" r="15.85" fill="#ffd720"></circle></svg>
