<svg xmlns="http://www.w3.org/2000/svg" xmlns:xlink="http://www.w3.org/1999/xlink" viewBox="0 0 338.667 254" height="960" width="1280" xmlns:v="https://vecta.io/nano"><style><![CDATA[.B{fill:#ffdf7f}.C{fill:#ffbf00}.D{fill:#7f3f00}]]></style><defs><linearGradient id="A" x1="508" y1="-15.875" x2="508" y2="142.875" gradientUnits="userSpaceOnUse"><stop offset="0" stop-color="#dfefff"/><stop offset="1" stop-color="#fff"/></linearGradient><path id="B" d="M47.625 52.917H31.75l7.938-13.229z"/><path id="C" d="M39.676 37.307a2.381 2.381 0 0 0-2.029 1.156l-7.937 13.229a2.381 2.381 0 0 0 2.041 3.607h15.875a2.381 2.381 0 0 0 2.041-3.607l-7.937-13.229a2.381 2.381 0 0 0-2.053-1.156zm.012 7.008l3.732 6.221h-7.465z"/><path id="D" d="M50.271 68.792H29.104l10.583-18.521z"/><path id="E" d="M39.596 47.891a2.381 2.381 0 0 0-1.977 1.199l-10.582 18.52a2.381 2.381 0 0 0 2.066 3.564h21.168a2.381 2.381 0 0 0 2.066-3.564L41.756 49.09a2.381 2.381 0 0 0-2.16-1.199zm.092 7.182l6.48 11.338H33.207z"/><path id="F" d="M52.917 84.667H26.458l13.229-23.813z"/><path id="G" d="M39.625 58.475a2.381 2.381 0 0 0-2.02 1.223L24.377 83.51a2.381 2.381 0 0 0 2.082 3.539h26.457a2.381 2.381 0 0 0 2.082-3.539L41.77 59.697a2.381 2.381 0 0 0-2.145-1.223zm.063 7.283l9.184 16.527H30.504z"/><path id="H" d="M387.841 169.427v2.938c0 1.114 3.182 2.017 7.106 2.017s7.103-.902 7.103-2.017v-2.938z"/><path id="I" d="M394.971 170.746c-3.027 0-6.093-.465-6.093-1.343s3.067-1.356 6.093-1.356 6.093.465 6.093 1.356-3.064 1.343-6.093 1.343zm0-2.444c-3.609 0-5.825.634-5.825 1.088s2.216 1.074 5.825 1.074 5.825-.634 5.825-1.074-2.216-1.088-5.825-1.088z"/><path id="J" d="M388.574 153.95v2.941c0 1.112 3.18 2.014 7.103 2.014s7.106-.902 7.106-2.014v-2.941z"/></defs><path d="M0 0h339.569v127H0z" fill="url(#A)"/><path d="M0 127h338.667v127H0z" fill="#bfffdf"/><path d="M248.316 131.507h3.92v19.599h-3.92zm-19.598-9.799h3.92v19.599h-3.92z" class="D"/><g transform="matrix(.74074 0 0 .74074 201.27946 68.791315)" fill="#004f27"><use xlink:href="#B"/><use xlink:href="#C"/><use xlink:href="#D"/><use xlink:href="#E"/><use xlink:href="#F"/><use xlink:href="#G"/></g><g transform="matrix(.74074 0 0 .74074 220.87819 78.59069)" fill="#005f2f"><use xlink:href="#B"/><use xlink:href="#C"/><use xlink:href="#D"/><use xlink:href="#E"/><use xlink:href="#F"/><use xlink:href="#G"/></g><path d="M209.119 135.427h3.92v19.599h-3.92zm-19.599-13.719h3.92v19.599h-3.92z" class="D"/><g transform="matrix(.74074 0 0 .74074 162.08196 68.791315)" fill="#004f27"><use xlink:href="#B"/><use xlink:href="#C"/><use xlink:href="#D"/><use xlink:href="#E"/><use xlink:href="#F"/><use xlink:href="#G"/></g><g transform="matrix(.74074 0 0 .74074 181.68071 82.51044)" fill="#006f37"><use xlink:href="#B"/><use xlink:href="#C"/><use xlink:href="#D"/><use xlink:href="#E"/><use xlink:href="#F"/><use xlink:href="#G"/></g><path d="M238.517 147.186h3.92v19.599h-3.92z" class="D"/><g transform="matrix(.74074 0 0 .74074 211.07884 94.26969)" fill="#007f3f"><use xlink:href="#B"/><use xlink:href="#C"/><use xlink:href="#D"/><use xlink:href="#E"/><use xlink:href="#F"/><use xlink:href="#G"/></g><path d="M120.81 62.753l-28.125 38.104c-.629.736-.963 1.727-.963 2.996 0 2.265 1.562 3.396 4.69 3.396h16.661l-10.508 65.674c-.661 3.769.694 5.818 4.041 5.818 3.239 0 5.159-1.65 5.665-4.853l10.508-66.638h16.66c3.451.002 5.178-1.563 5.178-4.69 0-1.207-.177-2.515-.773-3.444l-14.741-35.693s-1.16-2.274-4.089-2.274c-2.702 0-3.579.92-4.203 1.605z" fill="#00bf5f"/><g transform="matrix(1.329274 0 0 1.329274 -367.82361 -59.118443)"><use xlink:href="#H" class="B"/><path d="M394.947 174.516c-3.558 0-7.251-.806-7.251-2.148v-2.941a.134.134 0 0 1 .134-.134h14.209a.134.134 0 0 1 .134.134v2.938c.011 1.345-3.668 2.151-7.227 2.151zm-6.982-4.955v2.804c0 .908 2.801 1.88 6.982 1.88s6.982-.975 6.982-1.88v-2.804z"/><ellipse cx="394.947" cy="169.427" rx="7.103" ry="2.014" class="B"/><use xlink:href="#I" class="C"/><path d="M394.947 171.559c-4.05 0-7.224-.937-7.224-2.132s3.174-2.135 7.224-2.135 7.221.937 7.221 2.135-3.172 2.132-7.221 2.132zm0-4.028c-4.179 0-6.982.98-6.982 1.899s2.806 1.896 6.982 1.896 6.982-.98 6.982-1.896-2.804-1.901-6.982-1.901z"/><path d="M388.993 165.181v2.954c0 1.112 3.18 2.014 7.103 2.014s7.106-.902 7.106-2.014v-2.954z" class="B"/><path d="M396.091 170.284c-3.558 0-7.251-.806-7.251-2.148v-2.954a.134.134 0 0 1 .134-.134h14.209a.134.134 0 0 1 .134.134v2.954c.013 1.343-3.668 2.148-7.227 2.148zm-6.982-4.955v2.806c0 .908 2.801 1.88 6.982 1.88s6.982-.972 6.982-1.88v-2.82z"/><ellipse cx="396.091" cy="165.181" rx="7.103" ry="2.014" class="B"/><use xlink:href="#I" x="1.124" y="-4.233" class="C"/><path d="M396.091 167.313c-4.05 0-7.221-.937-7.221-2.132s3.172-2.132 7.221-2.132 7.224.935 7.224 2.132-3.174 2.132-7.224 2.132zm0-4.028c-4.179 0-6.982.98-6.982 1.896s2.806 1.896 6.982 1.896 6.982-.98 6.982-1.896-2.801-1.896-6.982-1.896z"/><path d="M387.841 160.919v2.954c0 1.112 3.182 2.014 7.106 2.014s7.103-.902 7.103-2.014v-2.954z" class="B"/><path d="M394.947 166.008c-3.558 0-7.251-.806-7.251-2.148v-2.954a.137.137 0 0 1 .134-.134h14.209a.134.134 0 0 1 .134.134v2.954c.011 1.345-3.668 2.148-7.227 2.148zm-6.982-4.955v2.806c0 .908 2.801 1.88 6.982 1.88s6.982-.972 6.982-1.88v-2.806z"/><ellipse cx="394.947" cy="160.919" rx="7.103" ry="2.014" class="B"/><path d="M394.947 163.054c-4.05 0-7.224-.937-7.224-2.148s3.174-2.132 7.224-2.132 7.221.937 7.221 2.132-3.172 2.148-7.221 2.148zm0-4.028c-4.179 0-6.982.98-6.982 1.896s2.806 1.896 6.982 1.896 6.982-.98 6.982-1.896-2.804-1.899-6.982-1.899z"/><use xlink:href="#I" y="-8.434" class="C"/><use xlink:href="#H" x="2.291" y="-11.991" class="B"/><path d="M397.237 162.525c-3.558 0-7.251-.806-7.251-2.148v-2.941a.134.134 0 0 1 .134-.134h14.209a.134.134 0 0 1 .134.134v2.938c.011 1.345-3.655 2.151-7.227 2.151zm-6.982-4.955v2.804c0 .908 2.801 1.88 6.982 1.88s6.982-.975 6.982-1.88v-2.804z"/><ellipse cx="397.237" cy="157.436" rx="7.103" ry="2.014" class="B"/><path d="M397.237 159.568c-4.052 0-7.224-.937-7.224-2.132s3.172-2.135 7.224-2.135 7.221.937 7.221 2.135-3.172 2.132-7.221 2.132zm0-4.028c-4.181 0-6.982.983-6.982 1.899s2.806 1.896 6.982 1.896 6.982-.98 6.982-1.896-2.804-1.901-6.982-1.901z"/><use xlink:href="#I" x="2.249" y="-11.972" class="C"/><use xlink:href="#J" class="B"/><path d="M395.677 159.039c-3.558 0-7.237-.806-7.237-2.148v-2.941a.134.134 0 0 1 .134-.134h14.209a.134.134 0 0 1 .134.134v2.941c0 1.345-3.682 2.148-7.24 2.148zm-6.969-4.955v2.806c0 .908 2.801 1.88 6.969 1.88s6.982-.972 6.982-1.88v-2.806z"/><ellipse cx="395.677" cy="153.95" rx="7.103" ry="2.014" class="B"/><path d="M395.677 156.099c-3.558 0-7.237-.806-7.237-2.148s3.679-2.148 7.237-2.148 7.251.806 7.251 2.148-3.693 2.148-7.251 2.148zm0-4.028c-4.168 0-6.969.972-6.969 1.88s2.801 1.88 6.969 1.88 6.982-.972 6.982-1.88-2.812-1.88-6.982-1.88z"/><use xlink:href="#I" x="0.706" y="-15.44" class="C"/><path d="M383.136 139.483s-.849-.916-.902-1.246-.118-1.474-.397-1.273-.212 1.02-.212 1.02-1.157-1.386-1.499-1.074-.481.588-.502 1.192 2.89 3.137 2.89 3.137" class="B"/><path d="M381.802 138.889a2.64 2.64 0 0 1-.284-1.027l.106.123c.022.241.143.609.263.856.026.063-.053.097-.084.048z" class="C"/><path d="M396.781 166.215a8.183 8.183 0 0 0 0 1.031c.043.132.306.787.269.986s-2.229 3.676-2.777 3.126.854-3.088.854-3.352-.175-1.797-.175-1.797zm-4.834.236s-.089 1.466 0 1.794.242.701.196.9-2.737 2.562-2.868 2.148.964-2.097.986-2.395-.349-2.597-.349-2.597z" class="D"/><path d="M409.505 140.474s.881-.884.948-1.211.177-1.469.448-1.257.172 1.029.172 1.029 1.211-1.343 1.536-1.029.459.607.459 1.208-3.008 3.024-3.008 3.024" class="B"/><path fill="#001f1f" d="M393.127 149.719l8.033.21s.515 2.192-.749 3.426c-1.345 1.313-4.061 2.71-4.238 3.556s.889 8.25.773 10.001l-2.64.626s-2.277-8.838-2.221-10.296.819-2.148.819-2.148-2.103 1.802-2.162 2.21 1.509 9.786 1.509 9.786-2.788.11-2.844-.067-2.634-8.841-1.993-10.71 5.712-6.593 5.712-6.593z"/><path d="M401.358 150.313l-1.103-8.098s2.779 3.721 3.781 3.968c.986.243 7.072-4.343 7.072-4.343l-1.407-1.998s-3.238 2.794-5.268 3.672c-.627-.853-3.569-5.881-5.721-6.108-1.989-.21-5.36.159-6.198 1.405-.948 1.434-3.594 3.62-3.594 3.62-1.935-.684-4.122-2.431-5.795-3.618l-1.383 1.958s6.427 4.661 7.595 4.195c.872-.317 3.413-2.246 3.421-2.327.181 2.248-.429 7.784-.429 7.784z" fill="#00bf5f"/><path d="M395.12 131.511s-1.512 4.159-1.349 4.619c.203.391 1.853.588 2.785 1.048l.759-6.135z" fill="#5f2f00"/><path d="M395.669 136.406l-.427 1.861s-.226 1.168 1.018 1.061a2.484 2.484 0 0 0 1.829-1.096l.5-3.384.481-2.769-2.686-.658c.115.167-.4.091-.4.094a2.148 2.148 0 0 0-.696-.027c-.239.806-.628 1.67-.765 2.492a8.159 8.159 0 0 0-.132 1.49c.016.948 1.278.935 1.278.935z" class="B"/><path d="M395.669 136.406c.041-.001 1.125-.041 1.421-.269.055-.036.099.035.055.07-.313.231-1.383.297-1.498.292l.022-.093z" class="C"/><path d="M395.565 134.586c-.066-.212.429-.703.731-1.131.076-.106.298.042.173.171a10.64 10.64 0 0 0-.655.862c-.019.054.295.102.426.102.079.005.131.014.138.086s-.049.116-.124.12c-.262.006-.647-.075-.689-.211z"/><g transform="rotate(282.94)"><ellipse ry=".137" rx=".151" cy="415.444" cx="-41.184"/><ellipse cx="-41.262" cy="417.023" rx=".151" ry=".137"/></g><path d="M394.652 132.436c1.355.247 3.692.494 3.839.916.115.339-1.002 3.818-.849 4.101.071.124 2.586.099 2.675-.185.077-.249-.159-2.966-.067-3.911.07-.716-.32-2.068-1.453-2.629-1.243-.615-2.56-.509-3.078-.171-.309.207-.821.72-1.068 1.88z" fill="#5f2f00"/><path d="M395.811 135.514c-.214-.048-.525-.167-.781-.47-.146-.138.093-.339.204-.172.205.238.383.377.696.412.258.023.519-.051.661-.082s.234.162.131.215a2.11 2.11 0 0 1-.912.097z"/><path d="M410.826 139.83c.129-.183.213-.566.247-.796l.099-.107c-.029.275-.134.775-.264.954-.048.063-.121.007-.083-.052z" class="C"/><path d="M401.757 145.558l-2.637-3.33m-6.55-1.225l-.215 8.553" fill="#fff"/></g><g transform="matrix(.740745 0 0 .74074 -202.90213 79.561543)"><g class="B"><use xlink:href="#J" x="63.063" y="-23.336"/><ellipse cx="458.74" cy="130.614" rx="7.103" ry="2.014"/></g><use xlink:href="#I" x="63.769" y="-38.776" class="C"/></g><g transform="matrix(.74074 0 0 .74074 -109.62574 6.864696)"><g class="B"><use xlink:href="#J" x="-77.067" y="64.222"/><ellipse cx="318.611" cy="218.172" rx="7.103" ry="2.014"/></g><use xlink:href="#I" x="-76.36" y="48.782" class="C"/></g><g transform="matrix(.74074 0 0 .74074 -208.16255 89.360918)"><g class="B"><use xlink:href="#J" x="63.063" y="-23.336"/><ellipse ry="2.014" rx="7.103" cy="130.614" cx="458.74"/></g><use xlink:href="#I" x="63.769" y="-38.776" class="C"/></g></svg>