<?xml version="1.0" encoding="UTF-8" standalone="no"?>
<svg
   viewBox="0 0 338.667 190.5"
   height="720"
   width="1280"
   version="1.1"
   id="svg65"
   sodipodi:docname="pricetracker.svg"
   inkscape:version="1.3 (0e150ed6c4, 2023-07-21)"
   xmlns:inkscape="http://www.inkscape.org/namespaces/inkscape"
   xmlns:sodipodi="http://sodipodi.sourceforge.net/DTD/sodipodi-0.dtd"
   xmlns:xlink="http://www.w3.org/1999/xlink"
   xmlns="http://www.w3.org/2000/svg"
   xmlns:svg="http://www.w3.org/2000/svg">
  <sodipodi:namedview
     id="namedview65"
     pagecolor="#ffffff"
     bordercolor="#666666"
     borderopacity="1.0"
     inkscape:showpageshadow="2"
     inkscape:pageopacity="0.0"
     inkscape:pagecheckerboard="0"
     inkscape:deskcolor="#d1d1d1"
     showgrid="false"
     inkscape:zoom="0.41927083"
     inkscape:cx="510.40994"
     inkscape:cy="549.76397"
     inkscape:window-width="1920"
     inkscape:window-height="1001"
     inkscape:window-x="-9"
     inkscape:window-y="-9"
     inkscape:window-maximized="1"
     inkscape:current-layer="svg65">
    <inkscape:grid
       id="grid65"
       units="px"
       originx="0"
       originy="0"
       spacingx="0.26458359"
       spacingy="0.26458333"
       empcolor="#0099e5"
       empopacity="0.30196078"
       color="#0099e5"
       opacity="0.14901961"
       empspacing="5"
       dotted="false"
       gridanglex="30"
       gridanglez="30"
       visible="false" />
  </sodipodi:namedview>
  <style
     id="style1"><![CDATA[.B{fill:#ffdf7f}.C{fill:#ffbf00}.D{fill:#7f3f00}]]></style>
  <defs
     id="defs2">
    <linearGradient
       id="A"
       x1="508"
       y1="-15.875"
       x2="508"
       y2="142.875"
       gradientUnits="userSpaceOnUse">
      <stop
         offset="0"
         stop-color="#dfefff"
         id="stop1" />
      <stop
         offset="1"
         stop-color="#fff"
         id="stop2" />
    </linearGradient>
    <path
       id="B"
       d="M 47.625,52.917 H 31.75 l 7.938,-13.229 z" />
    <path
       id="C"
       d="m 39.676,37.307 a 2.381,2.381 0 0 0 -2.029,1.156 L 29.71,51.692 a 2.381,2.381 0 0 0 2.041,3.607 h 15.875 a 2.381,2.381 0 0 0 2.041,-3.607 L 41.73,38.463 a 2.381,2.381 0 0 0 -2.053,-1.156 z m 0.012,7.008 3.732,6.221 h -7.465 z" />
    <path
       id="D"
       d="M 50.271,68.792 H 29.104 L 39.687,50.271 Z" />
    <path
       id="E"
       d="M 39.596,47.891 A 2.381,2.381 0 0 0 37.619,49.09 L 27.037,67.61 a 2.381,2.381 0 0 0 2.066,3.564 H 50.271 A 2.381,2.381 0 0 0 52.337,67.61 L 41.756,49.09 a 2.381,2.381 0 0 0 -2.16,-1.199 z m 0.092,7.182 6.48,11.338 H 33.207 Z" />
    <path
       id="F"
       d="M 52.917,84.667 H 26.458 L 39.687,60.854 Z" />
    <path
       id="G"
       d="m 39.625,58.475 a 2.381,2.381 0 0 0 -2.02,1.223 L 24.377,83.51 a 2.381,2.381 0 0 0 2.082,3.539 H 52.916 A 2.381,2.381 0 0 0 54.998,83.51 L 41.77,59.697 a 2.381,2.381 0 0 0 -2.145,-1.223 z m 0.063,7.283 9.184,16.527 H 30.504 Z" />
    <path
       id="H"
       d="m 387.841,169.427 v 2.938 c 0,1.114 3.182,2.017 7.106,2.017 3.924,0 7.103,-0.902 7.103,-2.017 v -2.938 z" />
    <path
       id="I"
       d="m 394.971,170.746 c -3.027,0 -6.093,-0.465 -6.093,-1.343 0,-0.878 3.067,-1.356 6.093,-1.356 3.026,0 6.093,0.465 6.093,1.356 0,0.891 -3.064,1.343 -6.093,1.343 z m 0,-2.444 c -3.609,0 -5.825,0.634 -5.825,1.088 0,0.454 2.216,1.074 5.825,1.074 3.609,0 5.825,-0.634 5.825,-1.074 0,-0.44 -2.216,-1.088 -5.825,-1.088 z" />
    <path
       id="J"
       d="m 388.574,153.95 v 2.941 c 0,1.112 3.18,2.014 7.103,2.014 3.923,0 7.106,-0.902 7.106,-2.014 v -2.941 z" />
  </defs>
  <path
     d="M 0,0 H 338.66684 V 95.250044 H 0 Z"
     fill="url(#A)"
     id="path2"
     style="fill:url(#A);stroke-width:0.999998" />
  <path
     d="M 0,95.249984 H 338.667 V 190.50003 H 0 Z"
     fill="#bfffdf"
     id="path3"
     style="stroke-width:1" />
  <path
     d="m 248.316,99.756984 h 3.92 v 19.598996 h -3.92 z m -19.598,-9.799 h 3.92 v 19.598996 h -3.92 z"
     class="D"
     id="path4" />
  <g
     transform="matrix(0.74074,0,0,0.74074,201.27946,37.041299)"
     fill="#004f27"
     id="g9">
    <use
       xlink:href="#B"
       id="use4" />
    <use
       xlink:href="#C"
       id="use5" />
    <use
       xlink:href="#D"
       id="use6" />
    <use
       xlink:href="#E"
       id="use7" />
    <use
       xlink:href="#F"
       id="use8" />
    <use
       xlink:href="#G"
       id="use9" />
  </g>
  <g
     transform="matrix(0.74074,0,0,0.74074,220.87819,46.840674)"
     fill="#005f2f"
     id="g15">
    <use
       xlink:href="#B"
       id="use10" />
    <use
       xlink:href="#C"
       id="use11" />
    <use
       xlink:href="#D"
       id="use12" />
    <use
       xlink:href="#E"
       id="use13" />
    <use
       xlink:href="#F"
       id="use14" />
    <use
       xlink:href="#G"
       id="use15" />
  </g>
  <path
     d="m 209.119,103.67698 h 3.92 v 19.599 h -3.92 z M 189.52,89.957984 h 3.92 v 19.598996 h -3.92 z"
     class="D"
     id="path15" />
  <g
     transform="matrix(0.74074,0,0,0.74074,162.08196,37.041299)"
     fill="#004f27"
     id="g21">
    <use
       xlink:href="#B"
       id="use16" />
    <use
       xlink:href="#C"
       id="use17" />
    <use
       xlink:href="#D"
       id="use18" />
    <use
       xlink:href="#E"
       id="use19" />
    <use
       xlink:href="#F"
       id="use20" />
    <use
       xlink:href="#G"
       id="use21" />
  </g>
  <g
     transform="matrix(0.74074,0,0,0.74074,181.68071,50.760424)"
     fill="#006f37"
     id="g27">
    <use
       xlink:href="#B"
       id="use22" />
    <use
       xlink:href="#C"
       id="use23" />
    <use
       xlink:href="#D"
       id="use24" />
    <use
       xlink:href="#E"
       id="use25" />
    <use
       xlink:href="#F"
       id="use26" />
    <use
       xlink:href="#G"
       id="use27" />
  </g>
  <path
     d="m 238.517,115.43598 h 3.92 v 19.599 h -3.92 z"
     class="D"
     id="path27" />
  <g
     transform="matrix(0.74074,0,0,0.74074,211.07884,62.519674)"
     fill="#007f3f"
     id="g33">
    <use
       xlink:href="#B"
       id="use28" />
    <use
       xlink:href="#C"
       id="use29" />
    <use
       xlink:href="#D"
       id="use30" />
    <use
       xlink:href="#E"
       id="use31" />
    <use
       xlink:href="#F"
       id="use32" />
    <use
       xlink:href="#G"
       id="use33" />
  </g>
  <path
     d="m 120.81,31.002984 -28.125,38.104 c -0.629,0.736 -0.963,1.727 -0.963,2.996 0,2.265 1.562,3.396 4.69,3.396 h 16.661 l -10.508,65.673996 c -0.661,3.769 0.694,5.818 4.041,5.818 3.239,0 5.159,-1.65 5.665,-4.853 l 10.508,-66.637996 h 16.66 c 3.451,0.002 5.178,-1.563 5.178,-4.69 0,-1.207 -0.177,-2.515 -0.773,-3.444 l -14.741,-35.693 c 0,0 -1.16,-2.274 -4.089,-2.274 -2.702,0 -3.579,0.92 -4.203,1.605 z"
     fill="#00bf5f"
     id="path33" />
  <g
     transform="matrix(1.329274,0,0,1.329274,-367.82361,-90.868459)"
     id="g59">
    <use
       xlink:href="#H"
       class="B"
       id="use34" />
    <path
       d="m 394.947,174.516 c -3.558,0 -7.251,-0.806 -7.251,-2.148 v -2.941 a 0.134,0.134 0 0 1 0.134,-0.134 h 14.209 a 0.134,0.134 0 0 1 0.134,0.134 v 2.938 c 0.011,1.345 -3.668,2.151 -7.227,2.151 z m -6.982,-4.955 v 2.804 c 0,0.908 2.801,1.88 6.982,1.88 4.181,0 6.982,-0.975 6.982,-1.88 v -2.804 z"
       id="path34" />
    <ellipse
       cx="394.94699"
       cy="169.427"
       rx="7.1030002"
       ry="2.0139999"
       class="B"
       id="ellipse34" />
    <use
       xlink:href="#I"
       class="C"
       id="use35" />
    <path
       d="m 394.947,171.559 c -4.05,0 -7.224,-0.937 -7.224,-2.132 0,-1.195 3.174,-2.135 7.224,-2.135 4.05,0 7.221,0.937 7.221,2.135 0,1.198 -3.172,2.132 -7.221,2.132 z m 0,-4.028 c -4.179,0 -6.982,0.98 -6.982,1.899 0,0.919 2.806,1.896 6.982,1.896 4.176,0 6.982,-0.98 6.982,-1.896 0,-0.916 -2.804,-1.901 -6.982,-1.901 z"
       id="path35" />
    <path
       d="m 388.993,165.181 v 2.954 c 0,1.112 3.18,2.014 7.103,2.014 3.923,0 7.106,-0.902 7.106,-2.014 v -2.954 z"
       class="B"
       id="path36" />
    <path
       d="m 396.091,170.284 c -3.558,0 -7.251,-0.806 -7.251,-2.148 v -2.954 a 0.134,0.134 0 0 1 0.134,-0.134 h 14.209 a 0.134,0.134 0 0 1 0.134,0.134 v 2.954 c 0.013,1.343 -3.668,2.148 -7.227,2.148 z m -6.982,-4.955 v 2.806 c 0,0.908 2.801,1.88 6.982,1.88 4.181,0 6.982,-0.972 6.982,-1.88 v -2.82 z"
       id="path37" />
    <ellipse
       cx="396.091"
       cy="165.181"
       rx="7.1030002"
       ry="2.0139999"
       class="B"
       id="ellipse37" />
    <use
       xlink:href="#I"
       x="1.124"
       y="-4.2329998"
       class="C"
       id="use37" />
    <path
       d="m 396.091,167.313 c -4.05,0 -7.221,-0.937 -7.221,-2.132 0,-1.195 3.172,-2.132 7.221,-2.132 4.049,0 7.224,0.935 7.224,2.132 0,1.197 -3.174,2.132 -7.224,2.132 z m 0,-4.028 c -4.179,0 -6.982,0.98 -6.982,1.896 0,0.916 2.806,1.896 6.982,1.896 4.176,0 6.982,-0.98 6.982,-1.896 0,-0.916 -2.801,-1.896 -6.982,-1.896 z"
       id="path38" />
    <path
       d="m 387.841,160.919 v 2.954 c 0,1.112 3.182,2.014 7.106,2.014 3.924,0 7.103,-0.902 7.103,-2.014 v -2.954 z"
       class="B"
       id="path39" />
    <path
       d="m 394.947,166.008 c -3.558,0 -7.251,-0.806 -7.251,-2.148 v -2.954 a 0.137,0.137 0 0 1 0.134,-0.134 h 14.209 a 0.134,0.134 0 0 1 0.134,0.134 v 2.954 c 0.011,1.345 -3.668,2.148 -7.227,2.148 z m -6.982,-4.955 v 2.806 c 0,0.908 2.801,1.88 6.982,1.88 4.181,0 6.982,-0.972 6.982,-1.88 v -2.806 z"
       id="path40" />
    <ellipse
       cx="394.94699"
       cy="160.91901"
       rx="7.1030002"
       ry="2.0139999"
       class="B"
       id="ellipse40" />
    <path
       d="m 394.947,163.054 c -4.05,0 -7.224,-0.937 -7.224,-2.148 0,-1.211 3.174,-2.132 7.224,-2.132 4.05,0 7.221,0.937 7.221,2.132 0,1.195 -3.172,2.148 -7.221,2.148 z m 0,-4.028 c -4.179,0 -6.982,0.98 -6.982,1.896 0,0.916 2.806,1.896 6.982,1.896 4.176,0 6.982,-0.98 6.982,-1.896 0,-0.916 -2.804,-1.899 -6.982,-1.899 z"
       id="path41" />
    <use
       xlink:href="#I"
       y="-8.434"
       class="C"
       id="use41" />
    <use
       xlink:href="#H"
       x="2.2909999"
       y="-11.991"
       class="B"
       id="use42" />
    <path
       d="m 397.237,162.525 c -3.558,0 -7.251,-0.806 -7.251,-2.148 v -2.941 a 0.134,0.134 0 0 1 0.134,-0.134 h 14.209 a 0.134,0.134 0 0 1 0.134,0.134 v 2.938 c 0.011,1.345 -3.655,2.151 -7.227,2.151 z m -6.982,-4.955 v 2.804 c 0,0.908 2.801,1.88 6.982,1.88 4.181,0 6.982,-0.975 6.982,-1.88 v -2.804 z"
       id="path42" />
    <ellipse
       cx="397.237"
       cy="157.436"
       rx="7.1030002"
       ry="2.0139999"
       class="B"
       id="ellipse42" />
    <path
       d="m 397.237,159.568 c -4.052,0 -7.224,-0.937 -7.224,-2.132 0,-1.195 3.172,-2.135 7.224,-2.135 4.052,0 7.221,0.937 7.221,2.135 0,1.198 -3.172,2.132 -7.221,2.132 z m 0,-4.028 c -4.181,0 -6.982,0.983 -6.982,1.899 0,0.916 2.806,1.896 6.982,1.896 4.176,0 6.982,-0.98 6.982,-1.896 0,-0.916 -2.804,-1.901 -6.982,-1.901 z"
       id="path43" />
    <use
       xlink:href="#I"
       x="2.2490001"
       y="-11.972"
       class="C"
       id="use43" />
    <use
       xlink:href="#J"
       class="B"
       id="use44" />
    <path
       d="m 395.677,159.039 c -3.558,0 -7.237,-0.806 -7.237,-2.148 v -2.941 a 0.134,0.134 0 0 1 0.134,-0.134 h 14.209 a 0.134,0.134 0 0 1 0.134,0.134 v 2.941 c 0,1.345 -3.682,2.148 -7.24,2.148 z m -6.969,-4.955 v 2.806 c 0,0.908 2.801,1.88 6.969,1.88 4.168,0 6.982,-0.972 6.982,-1.88 v -2.806 z"
       id="path44" />
    <ellipse
       cx="395.677"
       cy="153.95"
       rx="7.1030002"
       ry="2.0139999"
       class="B"
       id="ellipse44" />
    <path
       d="m 395.677,156.099 c -3.558,0 -7.237,-0.806 -7.237,-2.148 0,-1.342 3.679,-2.148 7.237,-2.148 3.558,0 7.251,0.806 7.251,2.148 0,1.342 -3.693,2.148 -7.251,2.148 z m 0,-4.028 c -4.168,0 -6.969,0.972 -6.969,1.88 0,0.908 2.801,1.88 6.969,1.88 4.168,0 6.982,-0.972 6.982,-1.88 0,-0.908 -2.812,-1.88 -6.982,-1.88 z"
       id="path45" />
    <use
       xlink:href="#I"
       x="0.70599997"
       y="-15.44"
       class="C"
       id="use45" />
    <path
       d="m 383.136,139.483 c 0,0 -0.849,-0.916 -0.902,-1.246 -0.053,-0.33 -0.118,-1.474 -0.397,-1.273 -0.279,0.201 -0.212,1.02 -0.212,1.02 0,0 -1.157,-1.386 -1.499,-1.074 -0.342,0.312 -0.481,0.588 -0.502,1.192 -0.021,0.604 2.89,3.137 2.89,3.137"
       class="B"
       id="path46" />
    <path
       d="m 381.802,138.889 a 2.64,2.64 0 0 1 -0.284,-1.027 l 0.106,0.123 c 0.022,0.241 0.143,0.609 0.263,0.856 0.026,0.063 -0.053,0.097 -0.084,0.048 z"
       class="C"
       id="path47" />
    <path
       d="m 396.781,166.215 a 8.183,8.183 0 0 0 0,1.031 c 0.043,0.132 0.306,0.787 0.269,0.986 -0.037,0.199 -2.229,3.676 -2.777,3.126 -0.548,-0.55 0.854,-3.088 0.854,-3.352 0,-0.264 -0.175,-1.797 -0.175,-1.797 z m -4.834,0.236 c 0,0 -0.089,1.466 0,1.794 0.089,0.328 0.242,0.701 0.196,0.9 -0.046,0.199 -2.737,2.562 -2.868,2.148 -0.131,-0.414 0.964,-2.097 0.986,-2.395 0.022,-0.298 -0.349,-2.597 -0.349,-2.597 z"
       class="D"
       id="path48" />
    <path
       d="m 409.505,140.474 c 0,0 0.881,-0.884 0.948,-1.211 0.067,-0.327 0.177,-1.469 0.448,-1.257 0.271,0.212 0.172,1.029 0.172,1.029 0,0 1.211,-1.343 1.536,-1.029 0.325,0.314 0.459,0.607 0.459,1.208 0,0.601 -3.008,3.024 -3.008,3.024"
       class="B"
       id="path49" />
    <path
       fill="#001f1f"
       d="m 393.127,149.719 8.033,0.21 c 0,0 0.515,2.192 -0.749,3.426 -1.345,1.313 -4.061,2.71 -4.238,3.556 -0.177,0.846 0.889,8.25 0.773,10.001 l -2.64,0.626 c 0,0 -2.277,-8.838 -2.221,-10.296 0.056,-1.458 0.819,-2.148 0.819,-2.148 0,0 -2.103,1.802 -2.162,2.21 -0.059,0.408 1.509,9.786 1.509,9.786 0,0 -2.788,0.11 -2.844,-0.067 -0.056,-0.177 -2.634,-8.841 -1.993,-10.71 0.641,-1.869 5.712,-6.593 5.712,-6.593 z"
       id="path50" />
    <path
       d="m 401.358,150.313 -1.103,-8.098 c 0,0 2.779,3.721 3.781,3.968 0.986,0.243 7.072,-4.343 7.072,-4.343 l -1.407,-1.998 c 0,0 -3.238,2.794 -5.268,3.672 -0.627,-0.853 -3.569,-5.881 -5.721,-6.108 -1.989,-0.21 -5.36,0.159 -6.198,1.405 -0.948,1.434 -3.594,3.62 -3.594,3.62 -1.935,-0.684 -4.122,-2.431 -5.795,-3.618 l -1.383,1.958 c 0,0 6.427,4.661 7.595,4.195 0.872,-0.317 3.413,-2.246 3.421,-2.327 0.181,2.248 -0.429,7.784 -0.429,7.784 z"
       fill="#00bf5f"
       id="path51" />
    <path
       d="m 395.12,131.511 c 0,0 -1.512,4.159 -1.349,4.619 0.203,0.391 1.853,0.588 2.785,1.048 l 0.759,-6.135 z"
       fill="#5f2f00"
       id="path52" />
    <path
       d="m 395.669,136.406 -0.427,1.861 c 0,0 -0.226,1.168 1.018,1.061 a 2.484,2.484 0 0 0 1.829,-1.096 l 0.5,-3.384 0.481,-2.769 -2.686,-0.658 c 0.115,0.167 -0.4,0.091 -0.4,0.094 a 2.148,2.148 0 0 0 -0.696,-0.027 c -0.239,0.806 -0.628,1.67 -0.765,2.492 a 8.159,8.159 0 0 0 -0.132,1.49 c 0.016,0.948 1.278,0.935 1.278,0.935 z"
       class="B"
       id="path53" />
    <path
       d="m 395.669,136.406 c 0.041,-0.001 1.125,-0.041 1.421,-0.269 0.055,-0.036 0.099,0.035 0.055,0.07 -0.313,0.231 -1.383,0.297 -1.498,0.292 z"
       class="C"
       id="path54" />
    <path
       d="m 395.565,134.586 c -0.066,-0.212 0.429,-0.703 0.731,-1.131 0.076,-0.106 0.298,0.042 0.173,0.171 a 10.64,10.64 0 0 0 -0.655,0.862 c -0.019,0.054 0.295,0.102 0.426,0.102 0.079,0.005 0.131,0.014 0.138,0.086 0.007,0.072 -0.049,0.116 -0.124,0.12 -0.262,0.006 -0.647,-0.075 -0.689,-0.211 z"
       id="path55" />
    <g
       transform="rotate(-77.06)"
       id="g56">
      <ellipse
         ry="0.13699999"
         rx="0.15099999"
         cy="415.444"
         cx="-41.183998"
         id="ellipse55" />
      <ellipse
         cx="-41.262001"
         cy="417.02301"
         rx="0.15099999"
         ry="0.13699999"
         id="ellipse56" />
    </g>
    <path
       d="m 394.652,132.436 c 1.355,0.247 3.692,0.494 3.839,0.916 0.115,0.339 -1.002,3.818 -0.849,4.101 0.071,0.124 2.586,0.099 2.675,-0.185 0.077,-0.249 -0.159,-2.966 -0.067,-3.911 0.07,-0.716 -0.32,-2.068 -1.453,-2.629 -1.243,-0.615 -2.56,-0.509 -3.078,-0.171 -0.309,0.207 -0.821,0.72 -1.068,1.88 z"
       fill="#5f2f00"
       id="path56" />
    <path
       d="m 395.811,135.514 c -0.214,-0.048 -0.525,-0.167 -0.781,-0.47 -0.146,-0.138 0.093,-0.339 0.204,-0.172 0.205,0.238 0.383,0.377 0.696,0.412 0.258,0.023 0.519,-0.051 0.661,-0.082 0.142,-0.031 0.234,0.162 0.131,0.215 a 2.11,2.11 0 0 1 -0.912,0.097 z"
       id="path57" />
    <path
       d="m 410.826,139.83 c 0.129,-0.183 0.213,-0.566 0.247,-0.796 l 0.099,-0.107 c -0.029,0.275 -0.134,0.775 -0.264,0.954 -0.048,0.063 -0.121,0.007 -0.083,-0.052 z"
       class="C"
       id="path58" />
    <path
       d="m 401.757,145.558 -2.637,-3.33 m -6.55,-1.225 -0.215,8.553"
       fill="#ffffff"
       id="path59" />
  </g>
  <g
     transform="matrix(0.740745,0,0,0.74074,-202.90213,47.811527)"
     id="g61">
    <g
       class="B"
       id="g60">
      <use
         xlink:href="#J"
         x="63.063"
         y="-23.336"
         id="use59" />
      <ellipse
         cx="458.73999"
         cy="130.614"
         rx="7.1030002"
         ry="2.0139999"
         id="ellipse59" />
    </g>
    <use
       xlink:href="#I"
       x="63.769001"
       y="-38.776001"
       class="C"
       id="use60" />
  </g>
  <g
     transform="matrix(0.74074,0,0,0.74074,-109.62574,-24.88532)"
     id="g63">
    <g
       class="B"
       id="g62">
      <use
         xlink:href="#J"
         x="-77.067001"
         y="64.222"
         id="use61" />
      <ellipse
         cx="318.61099"
         cy="218.172"
         rx="7.1030002"
         ry="2.0139999"
         id="ellipse61" />
    </g>
    <use
       xlink:href="#I"
       x="-76.360001"
       y="48.782001"
       class="C"
       id="use62" />
  </g>
  <g
     transform="matrix(0.74074,0,0,0.74074,-208.16255,57.610902)"
     id="g65">
    <g
       class="B"
       id="g64">
      <use
         xlink:href="#J"
         x="63.063"
         y="-23.336"
         id="use63" />
      <ellipse
         ry="2.0139999"
         rx="7.1030002"
         cy="130.614"
         cx="458.73999"
         id="ellipse63" />
    </g>
    <use
       xlink:href="#I"
       x="63.769001"
       y="-38.776001"
       class="C"
       id="use64" />
  </g>
</svg>
